<?xml version="1.0" encoding="utf-8"?>
<!-- Generator: Adobe Illustrator 23.0.0, SVG Export Plug-In . SVG Version: 6.00 Build 0)  -->
<svg version="1.1" id="图层_1" xmlns:serif="http://www.serif.com/"
	 xmlns="http://www.w3.org/2000/svg" xmlns:xlink="http://www.w3.org/1999/xlink" x="0px" y="0px" viewBox="0 0 560 288"
	 style="enable-background:new 0 0 560 288;" xml:space="preserve">
<style type="text/css">
	.st0{fill-rule:evenodd;clip-rule:evenodd;fill:#292B31;}
	.st1{clip-path:url(#SVGID_2_);}
	.st2{fill:#F8B500;}
	.st3{fill:none;stroke:#5F8ED4;stroke-width:0.3;stroke-linecap:round;stroke-linejoin:round;stroke-miterlimit:1.5;}
</style>
<g id="icon-Facebook">
	<circle id="z" class="st0" cx="280" cy="144" r="135"/>
	<g>
		<defs>
			<circle id="SVGID_1_" cx="280" cy="144" r="135"/>
		</defs>
		<clipPath id="SVGID_2_">
			<use xlink:href="#SVGID_1_"  style="overflow:visible;"/>
		</clipPath>
		<g class="st1">
			<path class="st2" d="M259.1,148.9v82.6h35v-82.6h24.2v-25.7h-24.2v-18c0-4.9,1-8.4,3.1-10.5c2.1-2.1,5.5-3.1,10.2-3.1
				c4.4,0,8.7,0.2,12.8,0.7V67.9c-3-0.2-6-0.3-9.1-0.6c-3.1-0.2-6.2-0.3-9.4-0.3c-14.3,0-25,3.4-32.1,10.1
				c-7.1,6.8-10.6,15.4-10.6,26v20.1h-21v25.7H259.1L259.1,148.9z"/>
		</g>
	</g>
	<circle id="z2" serif:id="z" class="st3" cx="280" cy="144" r="135">
	</circle>
</g>
</svg>
