<?xml version="1.0" encoding="utf-8"?>
<!-- Generator: Adobe Illustrator 23.0.0, SVG Export Plug-In . SVG Version: 6.00 Build 0)  -->
<svg version="1.1" id="图层_1" xmlns:serif="http://www.serif.com/"
	 xmlns="http://www.w3.org/2000/svg" xmlns:xlink="http://www.w3.org/1999/xlink" x="0px" y="0px" viewBox="0 0 560 288"
	 style="enable-background:new 0 0 560 288;" xml:space="preserve">
<style type="text/css">
	
		.st0{fill-rule:evenodd;clip-rule:evenodd;fill:#292B31;stroke:#5F8ED4;stroke-width:0.3;stroke-linecap:round;stroke-linejoin:round;stroke-miterlimit:1.5;}
	.st1{fill-rule:evenodd;clip-rule:evenodd;fill:#F8B500;}
</style>
<g id="icon-Twitter">
	<circle class="st0" cx="280" cy="144" r="135"/>
	<path class="st1" d="M338.6,103c0,0,12.6-11.8,12.5-15.6c0,0-13.4,7.2-18.6,6.5c0,0-46.4-31.9-54.3,26.3c0,0-26.3,9.9-63.4-29.4
		c0,0-13.6,22.6,8.5,39.2c0,0-6.5,2.8-12.4-2.2c0,0-0.4,24.1,22.9,28.6c0,0,0.7,1.9-10.5,3.2c0,0-0.8,14.7,25.3,19.7
		c0,0-12.7,17.3-42.8,13.8c0,0,112.9,42.3,129.2-41.9c0,0,2.2-8.9,4.9-36.7c0,0,13.7-9,14.9-14.9C355,99.5,344.7,102.8,338.6,103z"
		/>
</g>
</svg>
