<?xml version="1.0" encoding="utf-8"?>
<!-- Generator: Adobe Illustrator 23.0.0, SVG Export Plug-In . SVG Version: 6.00 Build 0)  -->
<svg version="1.1" id="图层_1" xmlns:serif="http://www.serif.com/"
	 xmlns="http://www.w3.org/2000/svg" xmlns:xlink="http://www.w3.org/1999/xlink" x="0px" y="0px" viewBox="0 0 560 288"
	 style="enable-background:new 0 0 560 288;" xml:space="preserve">
<style type="text/css">
	
		.st0{fill-rule:evenodd;clip-rule:evenodd;fill:#292B31;stroke:#5F8ED4;stroke-width:0.3;stroke-linecap:round;stroke-linejoin:round;stroke-miterlimit:1.5;}
	.st1{fill:#F8B500;}
</style>
<g id="icon-weibo">
	<circle class="st0" cx="280" cy="144" r="135"/>
	<g>
		<path class="st1" d="M266.1,98.7c-11.4-1-37.9,7.7-62.6,48c0,0-18.1,32.6,18.8,52.2c0,0,30.8,18.3,74.4,5.5
			c0,0,44.2-14.6,40.1-45.3c0,0-3.3-12.7-19-16.4c0,0-4.8-0.6-2.1-5.5c0,0,6.9-14.1-6.6-19.9c0,0-12.1-2.9-26.7,4.5
			c0,0-9.6,5.5-5-6.4C277.3,115.2,279.6,99.8,266.1,98.7L266.1,98.7z M310.1,164.8c0,16.7-21.5,35-47.9,35
			c-31,0-47.9-13.5-47.9-30.3c0-16.7,24.4-32.8,50.9-32.8C291.6,136.7,310.1,148.2,310.1,164.8z"/>
		<path class="st1" d="M283.4,170.7c-0.8,12.2-11.1,21.7-24.8,22.2c-16.5,0.6-27.5-6.9-25.5-21.9c1.5-12.2,12.1-22.5,25.5-22.5
			C272.3,148.5,284.4,155.9,283.4,170.7L283.4,170.7z M267.2,167.4c0-1.8-1.5-3.2-3.2-3.2c-1.7,0-3.2,1.5-3.2,3.2
			c0,1.7,1.5,3.2,3.2,3.2C265.7,170.8,267.2,169.4,267.2,167.4z M258.5,175.1c0-4.4-4-7.9-8.5-7.2c-4.5,0.6-8.8,4-8.8,8.3
			c0,4.4,3.7,7.6,8.3,7.6C254.2,184,258.5,179.5,258.5,175.1z M309.1,93.7c0.8-0.3,1.5-0.5,2.2-0.6c0.8-0.1,1.6-0.3,2.6-0.5
			c-2.7,0.3-0.5,0.1,0,0c0.6,0,1.3-0.1,2.1-0.1h4c0.8,0,1.5,0.1,2.2,0.1c-2.1-0.3-0.6-0.1-0.1,0s1,0.1,1.6,0.3
			c1.6,0.3,3.2,0.8,4.8,1.5c0.5,0.1,0.8,0.3,1.3,0.5c-1.6-0.6-0.1,0,0.1,0c1,0.5,1.9,1,3,1.6c0.8,0.5,1.8,1.1,2.6,1.6
			c0.5,0.3,0.8,0.6,1.3,1c-1.3-1,0.1,0.1,0.3,0.3c1.8,1.5,3.3,3,5,4.8c0.1,0.1,1.3,1.6,0.1,0.1c0.3,0.3,0.5,0.8,0.8,1.1
			c0.5,0.8,1,1.6,1.5,2.2c0.5,0.8,0.8,1.6,1.1,2.4c0.6,1.5-0.5-1.5,0,0c0.1,0.5,0.3,1,0.6,1.6c0.5,1.5,0.8,3,1.1,4.7
			c0,0.3,0.1,0.8,0.1,1.1c-0.3-2.1-0.1-0.8,0-0.3c0.1,0.8,0.1,1.6,0.1,2.6c0,1.3,0,2.7-0.1,4c0,0.6-0.1,1.3-0.1,1.9
			c0.3-2.6,0,0-0.1,0.4c-0.3,1.8-0.8,3.3-1.3,5c-0.3,1-1.5,3.3-0.1,0.4c-1.5,3.2-1,7.1,2.4,9c2.9,1.6,7.6,1,9-2.4
			c4-8.8,4.8-19.4,2.1-28.9c-4.8-17.1-21.5-28.6-38.7-30c-4.8-0.3-10.1,0-14.6,1.6c-3.3,1.1-5.6,4.5-4.7,8
			C301.9,92.4,305.7,95,309.1,93.7L309.1,93.7z"/>
		<path class="st1" d="M312.5,112c0.5-0.1,0.8-0.1,1.3-0.3c1.5-0.3-0.8,0,0.5,0c0.6,0,1.5-0.1,2.1-0.1c2.6,0,5.5,0.6,7.6,2.6
			c0.3,0.3,0.6,0.6,1.1,1c0,0,1,1.1,0.5,0.6c0.3,0.3,0.5,0.8,0.6,1.1c0.2,0.3,0.3,0.5,0.3,0.8c-0.1-0.3-0.1-0.3,0,0.1
			c0.3,0.8,0.5,1.6,0.6,2.4c0.3,1.3,0-0.8,0,0.3v3.4c0,0.3,0,0.6-0.1,0.8c0.1-1.5,0-0.1,0,0c-0.1,0.5-0.1,1-0.3,1.5
			c-0.6,2.2,0.8,4.8,3,5.3c2.4,0.6,4.7-0.8,5.3-3c2.2-7.2,0.5-15.8-5.3-20.7c-5.1-4.7-13.2-6.3-19.9-4.3
			C304.8,105.1,307.2,113.5,312.5,112L312.5,112z"/>
	</g>
</g>
</svg>
