<?xml version="1.0" encoding="utf-8"?>
<!-- Generator: Adobe Illustrator 23.0.0, SVG Export Plug-In . SVG Version: 6.00 Build 0)  -->
<svg version="1.1" id="图层_1" xmlns:serif="http://www.serif.com/"
	 xmlns="http://www.w3.org/2000/svg" xmlns:xlink="http://www.w3.org/1999/xlink" x="0px" y="0px" viewBox="0 0 560 288"
	 style="enable-background:new 0 0 560 288;" xml:space="preserve">
<style type="text/css">
	.st0{fill-rule:evenodd;clip-rule:evenodd;fill:#292B31;}
	.st1{fill:#F8B500;}
</style>
<g id="icon-QQ">
	<circle class="st0" cx="280" cy="144" r="135"/>
	<path class="st1" d="M226.5,121.4c0-32.3,24.2-58.4,54.2-58.4c29.9,0,54.2,26.2,54.2,58.4c0,1.2,3.3,0,4.8,5.6
		c0.3,1.2,0.5,5.6,0.2,12c-0.2,3.1,8.2,6.8,12.6,23.1c4.3,16.3,0,24-2.2,25.8c-5.2,4.4-12-14.6-13-11.7c-2.4,7.1-3.5,11.9-10.5,19.6
		c-0.4,0.4,8.1,3.4,10.5,9.9c2.3,6.2,6.8,16-22.5,19.1c-17.2,1.8-29.6-9-30.8-8.9c-2.3,0.2-1.3,0-3.7,0c-2,0-2.2,0.1-4,0
		c-0.5,0-6.2,8.9-31.7,8.9c-19.8,0-24.9-12.3-20.9-19.1c4-6.8,10.6-8.7,9.7-9.8c-4.6-5.3-7.8-10.9-9.7-16c-0.5-1.3-0.9-2.5-1.2-3.7
		c-0.7-2.7-6.2,16-12.1,11.7c-5.9-4.3-5.4-15.3-1.5-25.8c3.9-10.6,13.6-20.8,13.7-23.1c0.4-8.4-0.8-9.8,0-12
		C224.2,122.1,226.5,124,226.5,121.4z"/>
</g>
</svg>
