<?xml version="1.0" encoding="utf-8"?>
<!-- Generator: Adobe Illustrator 23.0.0, SVG Export Plug-In . SVG Version: 6.00 Build 0)  -->
<svg version="1.1" id="图层_1" xmlns:serif="http://www.serif.com/"
	 xmlns="http://www.w3.org/2000/svg" xmlns:xlink="http://www.w3.org/1999/xlink" x="0px" y="0px" viewBox="0 0 560 288"
	 style="enable-background:new 0 0 560 288;" xml:space="preserve">
<style type="text/css">
	
		.st0{fill-rule:evenodd;clip-rule:evenodd;fill:#292B31;stroke:#5F8ED4;stroke-width:0.3;stroke-linecap:round;stroke-linejoin:round;stroke-miterlimit:1.5;}
	.st1{opacity:0.9;fill:#F8B500;enable-background:new    ;}
</style>
<g id="icon-wechat">
	<circle class="st0" cx="280" cy="144" r="135"/>
	<path class="st1" d="M328.8,155.3c-3.9,0-7-3.2-7-7.1c0-3.9,3.2-7.1,7-7.1c3.9,0,7,3.2,7,7.1S332.6,155.3,328.8,155.3 M292.6,155.3
		c-3.9,0-7-3.2-7-7.1c0-3.9,3.2-7.1,7-7.1s7,3.2,7,7.1C299.7,152.1,296.5,155.3,292.6,155.3 M361,165.4c0-23-20.4-41.8-46.4-43.4
		c-1.2-0.1-2.4-0.1-3.6-0.1c-27.6,0-50,19.5-50,43.5c0,3.6,0.5,7.1,1.5,10.5c5.4,19,25.1,33,48.5,33c8,0,15.5-1.6,22.2-4.5l11.2,7.7
		c0,0,3,2.1,2.7-1.9l-3.2-12C354.4,190.2,361,178.5,361,165.4 M234.4,116.5c-3.9,0-7-3.2-7-7.1s3.1-7.1,7-7.1s7,3.2,7,7.1
		S238.3,116.5,234.4,116.5 M278.6,102.3c3.9,0,7,3.2,7,7.1s-3.1,7.1-7,7.1s-7-3.2-7-7.1S274.7,102.3,278.6,102.3 M311,118.3
		c1.1,0,2.1,0,3.2,0.1c-4.1-24.3-28.2-43-57.3-43c-32,0-57.9,22.6-57.9,50.4c0,15.5,8.1,29.4,20.7,38.6l-4.3,16.1c0,0-1.5,5.4,4.1,3
		l15.9-10.9c6.6,2.3,13.9,3.6,21.4,3.6c0.6,0,1.3-0.1,1.9-0.1c-0.9-3.4-1.4-7-1.4-10.7C257.4,139.4,281.4,118.3,311,118.3"/>
</g>
</svg>
