<?xml version="1.0" encoding="utf-8"?>
<!-- Generator: Adobe Illustrator 23.0.0, SVG Export Plug-In . SVG Version: 6.00 Build 0)  -->
<svg version="1.1" id="图层_1" xmlns:serif="http://www.serif.com/"
	 xmlns="http://www.w3.org/2000/svg" xmlns:xlink="http://www.w3.org/1999/xlink" x="0px" y="0px" viewBox="0 0 560 288"
	 style="enable-background:new 0 0 560 288;" xml:space="preserve">
<style type="text/css">
	.st0{fill-rule:evenodd;clip-rule:evenodd;fill:#292B31;}
	.st1{clip-path:url(#SVGID_2_);}
	.st2{fill-rule:evenodd;clip-rule:evenodd;fill:#F8B500;}
	.st3{fill:#292B31;}
	.st4{font-family:'HelveticaNeue-Medium';}
	.st5{font-size:67.905px;}
	.st6{fill:none;stroke:#5F8ED4;stroke-width:0.3;stroke-linecap:round;stroke-linejoin:round;stroke-miterlimit:1.5;}
</style>
<g id="icon-Telegram-cn">
	<circle class="st0" cx="280" cy="144" r="135"/>
	<g>
		<defs>
			<circle id="SVGID_1_" cx="280" cy="144" r="135"/>
		</defs>
		<clipPath id="SVGID_2_">
			<use xlink:href="#SVGID_1_"  style="overflow:visible;"/>
		</clipPath>
		<g class="st1">
			<rect x="141.3" y="214.8" class="st2" width="274.7" height="96.4"/>
			<text transform="matrix(1 0 0 1 234.6055 269.3047)" class="st3 st4 st5">C</text>
			<text transform="matrix(1 0 0 1 280.918 269.3047)" class="st3 st4 st5">N</text>
		</g>
	</g>
	<circle class="st6" cx="280" cy="144" r="135"/>
	<path class="st2" d="M238.8,130.5l-47.7-11.6c0,0-7.4-4.6,7.6-9.9l137.7-51.4c0,0,10.3-4.2,7.8,9L321,171.4c0,0-3.6,17.8-15.4,6.1
		L274.8,155l-20.9,16.5c0,0-5.4,4.5-4.7,0l4.7-32.8l63.2-57.8c0,0,4.1-4.9-5,0.6L238.8,130.5L238.8,130.5z"/>
</g>
</svg>
