<?xml version="1.0" encoding="utf-8"?>
<!-- Generator: Adobe Illustrator 23.0.0, SVG Export Plug-In . SVG Version: 6.00 Build 0)  -->
<svg version="1.1" id="图层_1" xmlns:serif="http://www.serif.com/"
	 xmlns="http://www.w3.org/2000/svg" xmlns:xlink="http://www.w3.org/1999/xlink" x="0px" y="0px" viewBox="0 0 560 288"
	 style="enable-background:new 0 0 560 288;" xml:space="preserve">
<style type="text/css">
	.st0{fill-rule:evenodd;clip-rule:evenodd;fill:#292B31;}
	.st1{clip-path:url(#SVGID_2_);}
	.st2{fill:#F8B500;}
	.st3{fill:none;stroke:#5F8ED4;stroke-width:0.3;stroke-linecap:round;stroke-linejoin:round;stroke-miterlimit:1.5;}
</style>
<g id="icon-toutiao">
	<circle class="st0" cx="280" cy="144" r="135"/>
	<g>
		<defs>
			<circle id="SVGID_1_" cx="280" cy="144" r="135"/>
		</defs>
		<clipPath id="SVGID_2_">
			<use xlink:href="#SVGID_1_"  style="overflow:visible;"/>
		</clipPath>
		<g class="st1">
			<path class="st2" d="M136,77.2v145.6l288-13.2V65.2L136,77.2z M214.1,105.5l13.6,17.1l-18.6,1.1l-13.5-17.1
				C195.6,106.6,214.1,105.5,214.1,105.5z M214.1,127l13.6,17.1l-18.6,1l-13.6-17.1C195.6,127.9,214.1,127,214.1,127z M220,191.8
				l-31.3,1.9v-11.1l18.6-1.1l15.1-20l-34.2,2v-11.1l49.2-2.9l0.1-48.7l16.8-1v48.6l20.7-1v11.1l-31.3,1.8L220,191.8z M258.7,189.5
				l-13.4-26.2l18.7-0.8l13.5,26.1L258.7,189.5z M301.8,90l13.4,6.5l55.6-3.1v19.2l-27.4,13.6l20.7,7.7l8.1-0.5v11.2l-12.1,0.7
				l-31.8-11.7l-30.9,15.1l-12.1,0.7v-11.1l7.9-0.5l20.1-9.9l-11.8-4.5l6.9-10.2l19.8,7.4l25.8-12.7v-2.7l-46,2.5l-9.3,14.7
				l-14.3-5.1L301.8,90L301.8,90z M302.3,187.3l-17,0.9l11.4-21.8l16.8-1L302.3,187.3L302.3,187.3z M320.4,186.1v-24.4l-35.1,2
				v-11.2l35-1.8l0-5.6l16.8-1v5.6l35-2v11.1l-35,2l0.1,24.5L320.4,186.1z M358.6,183.9l-12.4-20.4l16.9-1l12.3,20.5L358.6,183.9
				L358.6,183.9z"/>
		</g>
	</g>
	<circle class="st3" cx="280" cy="144" r="135"/>
</g>
</svg>
