<?xml version="1.0" encoding="utf-8"?>
<!-- Generator: Adobe Illustrator 22.1.0, SVG Export Plug-In . SVG Version: 6.00 Build 0)  -->
<svg version="1.1" id="图层_1" xmlns="http://www.w3.org/2000/svg" xmlns:xlink="http://www.w3.org/1999/xlink" x="0px" y="0px"
	 viewBox="0 0 100 38" style="enable-background:new 0 0 100 38;" xml:space="preserve">
<style type="text/css">
	.st0{fill:url(#矩形_1_);}
	.st1{fill:#FFFFFF;}
</style>
<title>Beta</title>
<desc>Created with Sketch.</desc>
<g id="页面-1">
	<g id="Beta">
		
			<linearGradient id="矩形_1_" gradientUnits="userSpaceOnUse" x1="-251.5077" y1="405.6135" x2="-252.3507" y2="405.5978" gradientTransform="matrix(100 0 0 -38 25245 15432.0029)">
			<stop  offset="0" style="stop-color:#EE0072"/>
			<stop  offset="1" style="stop-color:#D8003E"/>
		</linearGradient>
		<path id="矩形" class="st0" d="M38,0h62l0,0c0,21-17,38-38,38H0l0,0C0,17,17,0,38,0z"/>
		<g>
			<g>
				<path id="path-2" d="M28.9,16.8c1.2,0,2.1-0.2,2.8-0.5c1-0.5,1.6-1.5,1.6-2.8c0-1.4-0.6-2.3-1.7-2.8c-0.6-0.3-1.6-0.4-2.8-0.4
					h-5.1v6.5H28.9z M29.9,26.5c1.7,0,3-0.5,3.7-1.5c0.5-0.6,0.7-1.4,0.7-2.3c0-1.5-0.7-2.6-2-3.1c-0.7-0.3-1.7-0.4-2.9-0.4h-5.6
					v7.4H29.9z M21,8h9c2.4,0,4.2,0.7,5.2,2.2c0.6,0.9,0.9,1.9,0.9,3c0,1.3-0.4,2.4-1.1,3.2c-0.4,0.4-0.9,0.9-1.7,1.2
					c1.1,0.4,1.9,0.9,2.4,1.4c0.9,0.9,1.4,2.2,1.4,3.8c0,1.3-0.4,2.6-1.3,3.7c-1.3,1.6-3.3,2.4-6,2.4H21V8z M46.5,13.3
					c1.1,0,2.1,0.3,3.1,0.8c1,0.5,1.8,1.2,2.3,2c0.5,0.8,0.9,1.7,1,2.7c0.2,0.7,0.2,1.8,0.2,3.4H42.1c0,1.5,0.4,2.8,1.1,3.7
					s1.7,1.4,3.2,1.4c1.3,0,2.4-0.4,3.2-1.3c0.5-0.5,0.8-1.1,1-1.8H53c-0.1,0.6-0.3,1.2-0.7,1.9s-0.8,1.3-1.3,1.7
					c-0.8,0.8-1.7,1.3-2.9,1.5c-0.6,0.2-1.3,0.2-2.1,0.2c-1.9,0-3.5-0.7-4.8-2.1c-1.3-1.4-2-3.3-2-5.8c0-2.4,0.7-4.4,2-6
					C42.7,14.1,44.4,13.3,46.5,13.3z M50.6,20.1c-0.1-1.1-0.3-2-0.7-2.7c-0.7-1.2-1.9-1.9-3.5-1.9c-1.2,0-2.2,0.4-3,1.3
					c-0.8,0.8-1.2,1.9-1.3,3.2H50.6z M56.9,9.4h2.6v4.3h2.4v2.1h-2.4v10c0,0.5,0.2,0.9,0.5,1.1c0.2,0.1,0.5,0.2,1,0.2
					c0.1,0,0.3,0,0.4,0c0.1,0,0.3,0,0.5,0v2c-0.3,0.1-0.6,0.1-0.9,0.2c-0.3,0-0.7,0.1-1,0.1c-1.2,0-2-0.3-2.4-0.9
					c-0.4-0.6-0.6-1.4-0.6-2.4V15.8h-2.1v-2.1h2.1V9.4z M66.5,24.9c0,0.7,0.3,1.3,0.8,1.8c0.5,0.4,1.2,0.6,1.9,0.6
					c0.9,0,1.8-0.2,2.6-0.6c1.4-0.7,2.1-1.8,2.1-3.4v-2.1c-0.3,0.2-0.7,0.4-1.2,0.5c-0.5,0.1-1,0.2-1.5,0.3l-1.6,0.2
					c-0.9,0.1-1.6,0.3-2.1,0.6C66.9,23.2,66.5,23.9,66.5,24.9z M72.7,19.7c0.6-0.1,1-0.3,1.2-0.7c0.1-0.2,0.2-0.6,0.2-1
					c0-0.9-0.3-1.5-0.9-1.9s-1.5-0.6-2.7-0.6c-1.3,0-2.3,0.4-2.8,1.1c-0.3,0.4-0.5,1-0.6,1.8h-2.4c0-1.9,0.7-3.2,1.8-3.9
					c1.2-0.7,2.5-1.1,4.1-1.1c1.8,0,3.3,0.3,4.4,1c1.1,0.7,1.7,1.7,1.7,3.2v8.8c0,0.3,0.1,0.5,0.2,0.6c0.1,0.2,0.3,0.2,0.7,0.2
					c0.1,0,0.2,0,0.4,0c0.1,0,0.3,0,0.5-0.1V29c-0.4,0.1-0.7,0.2-0.9,0.2c-0.2,0-0.5,0-0.9,0c-0.9,0-1.5-0.3-1.9-0.9
					c-0.2-0.3-0.4-0.8-0.4-1.4c-0.5,0.7-1.3,1.3-2.3,1.8s-2.1,0.8-3.2,0.8c-1.4,0-2.6-0.4-3.5-1.3c-0.9-0.9-1.3-1.9-1.3-3.2
					c0-1.4,0.4-2.5,1.3-3.3s2-1.3,3.5-1.4L72.7,19.7z"/>
			</g>
			<g>
				<path id="path-2_1_" class="st1" d="M28.9,16.8c1.2,0,2.1-0.2,2.8-0.5c1-0.5,1.6-1.5,1.6-2.8c0-1.4-0.6-2.3-1.7-2.8
					c-0.6-0.3-1.6-0.4-2.8-0.4h-5.1v6.5H28.9z M29.9,26.5c1.7,0,3-0.5,3.7-1.5c0.5-0.6,0.7-1.4,0.7-2.3c0-1.5-0.7-2.6-2-3.1
					c-0.7-0.3-1.7-0.4-2.9-0.4h-5.6v7.4H29.9z M21,8h9c2.4,0,4.2,0.7,5.2,2.2c0.6,0.9,0.9,1.9,0.9,3c0,1.3-0.4,2.4-1.1,3.2
					c-0.4,0.4-0.9,0.9-1.7,1.2c1.1,0.4,1.9,0.9,2.4,1.4c0.9,0.9,1.4,2.2,1.4,3.8c0,1.3-0.4,2.6-1.3,3.7c-1.3,1.6-3.3,2.4-6,2.4H21V8
					z M46.5,13.3c1.1,0,2.1,0.3,3.1,0.8c1,0.5,1.8,1.2,2.3,2c0.5,0.8,0.9,1.7,1,2.7c0.2,0.7,0.2,1.8,0.2,3.4H42.1
					c0,1.5,0.4,2.8,1.1,3.7s1.7,1.4,3.2,1.4c1.3,0,2.4-0.4,3.2-1.3c0.5-0.5,0.8-1.1,1-1.8H53c-0.1,0.6-0.3,1.2-0.7,1.9
					s-0.8,1.3-1.3,1.7c-0.8,0.8-1.7,1.3-2.9,1.5c-0.6,0.2-1.3,0.2-2.1,0.2c-1.9,0-3.5-0.7-4.8-2.1c-1.3-1.4-2-3.3-2-5.8
					c0-2.4,0.7-4.4,2-6C42.7,14.1,44.4,13.3,46.5,13.3z M50.6,20.1c-0.1-1.1-0.3-2-0.7-2.7c-0.7-1.2-1.9-1.9-3.5-1.9
					c-1.2,0-2.2,0.4-3,1.3c-0.8,0.8-1.2,1.9-1.3,3.2H50.6z M56.9,9.4h2.6v4.3h2.4v2.1h-2.4v10c0,0.5,0.2,0.9,0.5,1.1
					c0.2,0.1,0.5,0.2,1,0.2c0.1,0,0.3,0,0.4,0c0.1,0,0.3,0,0.5,0v2c-0.3,0.1-0.6,0.1-0.9,0.2c-0.3,0-0.7,0.1-1,0.1
					c-1.2,0-2-0.3-2.4-0.9c-0.4-0.6-0.6-1.4-0.6-2.4V15.8h-2.1v-2.1h2.1V9.4z M66.5,24.9c0,0.7,0.3,1.3,0.8,1.8
					c0.5,0.4,1.2,0.6,1.9,0.6c0.9,0,1.8-0.2,2.6-0.6c1.4-0.7,2.1-1.8,2.1-3.4v-2.1c-0.3,0.2-0.7,0.4-1.2,0.5c-0.5,0.1-1,0.2-1.5,0.3
					l-1.6,0.2c-0.9,0.1-1.6,0.3-2.1,0.6C66.9,23.2,66.5,23.9,66.5,24.9z M72.7,19.7c0.6-0.1,1-0.3,1.2-0.7c0.1-0.2,0.2-0.6,0.2-1
					c0-0.9-0.3-1.5-0.9-1.9s-1.5-0.6-2.7-0.6c-1.3,0-2.3,0.4-2.8,1.1c-0.3,0.4-0.5,1-0.6,1.8h-2.4c0-1.9,0.7-3.2,1.8-3.9
					c1.2-0.7,2.5-1.1,4.1-1.1c1.8,0,3.3,0.3,4.4,1c1.1,0.7,1.7,1.7,1.7,3.2v8.8c0,0.3,0.1,0.5,0.2,0.6c0.1,0.2,0.3,0.2,0.7,0.2
					c0.1,0,0.2,0,0.4,0c0.1,0,0.3,0,0.5-0.1V29c-0.4,0.1-0.7,0.2-0.9,0.2c-0.2,0-0.5,0-0.9,0c-0.9,0-1.5-0.3-1.9-0.9
					c-0.2-0.3-0.4-0.8-0.4-1.4c-0.5,0.7-1.3,1.3-2.3,1.8s-2.1,0.8-3.2,0.8c-1.4,0-2.6-0.4-3.5-1.3c-0.9-0.9-1.3-1.9-1.3-3.2
					c0-1.4,0.4-2.5,1.3-3.3s2-1.3,3.5-1.4L72.7,19.7z"/>
			</g>
		</g>
	</g>
</g>
</svg>
