<?xml version="1.0" encoding="UTF-8" standalone="no"?>
<!DOCTYPE svg PUBLIC "-//W3C//DTD SVG 1.1//EN" "http://www.w3.org/Graphics/SVG/1.1/DTD/svg11.dtd">
<svg width="100%" height="100%" viewBox="0 0 201 200" version="1.1" xmlns="http://www.w3.org/2000/svg" xmlns:xlink="http://www.w3.org/1999/xlink" xml:space="preserve" xmlns:serif="http://www.serif.com/" style="fill-rule:evenodd;clip-rule:evenodd;stroke-linejoin:round;stroke-miterlimit:2;">
    <path d="M193.8,170.195L146.427,129.902C141.527,125.496 136.289,123.471 132.058,123.665C143.239,110.565 149.995,93.572 149.995,74.998C149.995,33.58 116.415,0 74.998,0C33.58,0 0,33.58 0,74.998C0,116.415 33.58,149.995 74.998,149.995C93.572,149.995 110.565,143.239 123.665,132.058C123.471,136.289 125.496,141.527 129.902,146.427L170.195,193.8C177.094,201.462 188.363,202.112 195.238,195.238C202.112,188.363 201.469,177.094 193.8,170.195ZM75.004,125.002C47.392,125.002 25.005,102.616 25.005,75.004C25.005,47.392 47.392,25.005 75.004,25.005C102.616,25.005 125.002,47.392 125.002,75.004C125.002,102.616 102.616,125.002 75.004,125.002Z" style="fill:rgb(27,34,40);fill-rule:nonzero;"/>
</svg>
