<?xml version="1.0" encoding="UTF-8" standalone="no"?>
<!DOCTYPE svg PUBLIC "-//W3C//DTD SVG 1.1//EN" "http://www.w3.org/Graphics/SVG/1.1/DTD/svg11.dtd">
<svg width="100%" height="100%" viewBox="0 0 200 200" version="1.1" xmlns="http://www.w3.org/2000/svg" xmlns:xlink="http://www.w3.org/1999/xlink" xml:space="preserve" xmlns:serif="http://www.serif.com/" style="fill-rule:evenodd;clip-rule:evenodd;stroke-linejoin:round;stroke-miterlimit:2;">
    <path d="M155.407,121.429C155.407,123.363 154.7,125.037 153.286,126.451L103.286,176.451C101.872,177.865 100.198,178.571 98.264,178.571C96.329,178.571 94.655,177.865 93.241,176.451L43.241,126.451C41.828,125.037 41.121,123.363 41.121,121.429C41.121,119.494 41.828,117.82 43.241,116.406C44.655,114.993 46.329,114.286 48.264,114.286L148.264,114.286C150.198,114.286 151.872,114.993 153.286,116.406C154.7,117.82 155.407,119.494 155.407,121.429ZM155.407,78.571C155.407,80.506 154.7,82.18 153.286,83.594C151.872,85.007 150.198,85.714 148.264,85.714L48.264,85.714C46.329,85.714 44.655,85.007 43.241,83.594C41.828,82.18 41.121,80.506 41.121,78.571C41.121,76.637 41.828,74.963 43.241,73.549L93.241,23.549C94.655,22.135 96.329,21.429 98.264,21.429C100.198,21.429 101.872,22.135 103.286,23.549L153.286,73.549C154.7,74.963 155.407,76.637 155.407,78.571Z" style="fill:rgb(27,34,40);fill-rule:nonzero;"/>
</svg>
