<?xml version="1.0" encoding="utf-8"?>
<!-- Generator: Adobe Illustrator 23.0.0, SVG Export Plug-In . SVG Version: 6.00 Build 0)  -->
<svg version="1.1" id="图层_1" xmlns="http://www.w3.org/2000/svg" xmlns:xlink="http://www.w3.org/1999/xlink" x="0px" y="0px"
	 viewBox="0 0 536 359" style="enable-background:new 0 0 536 359;" xml:space="preserve">
<style type="text/css">
	.st0{fill:#FFDB78;}
</style>
<title>eye-open</title>
<desc>Created with Sketch.</desc>
<g id="Page-1">
	<g id="eye-open">
		<path id="形状" class="st0" d="M271.3,0l3.5,0.1l3.5,0.1l3.4,0.1l3.4,0.2l3.4,0.2l3.4,0.3l3.4,0.3l3.4,0.3l3.4,0.4l3.3,0.4
			l3.3,0.5l3.3,0.5l3.3,0.5l3.3,0.6l3.3,0.6l3.2,0.7l3.2,0.7l3.2,0.7l3.2,0.7l3.2,0.8l3.2,0.8l3.2,0.9l3.2,0.9l3.1,0.9l3.1,1l3.1,1
			l3.1,1l3.1,1l3.1,1.1l3,1.1l3,1.1l6,2.3l3,1.2l2.9,1.2l2.9,1.3l2.9,1.3l2.9,1.3l5.7,2.7l2.8,1.4l2.8,1.4l5.5,2.9l2.7,1.5l2.7,1.5
			l2.7,1.5l5.3,3l2.6,1.6l2.6,1.5l2.6,1.6l5.1,3.2l2.5,1.7l2.5,1.6l2.4,1.7l2.4,1.7l4.8,3.4l4.6,3.5l2.3,1.8l2.3,1.8l2.2,1.8
			l2.2,1.8l2.2,1.8l2.1,1.8l2.1,1.8l4.2,3.6l2,1.8l2,1.8l2,1.8l1.9,1.8l1.9,1.8l1.9,1.9l1.8,1.8l1.8,1.8l1.8,1.9l1.8,1.9l1.7,1.8
			l1.7,1.9l1.7,1.9l1.6,1.8l1.6,1.9l1.5,1.9l1.5,1.9l1.5,1.8l1.5,1.9l1.4,1.8l1.4,1.8l1.3,1.9l1.3,1.8l1.3,1.8l1.3,1.8l1.2,1.8
			l1.2,1.8l1.2,1.8l1.1,1.8l1.1,1.8l1,1.8l1,1.8l1,1.8l0.9,1.8l0.9,1.8l0.8,1.8l0.8,1.7l0.7,1.7l0.7,1.7l0.7,1.7l0.7,1.7l0.6,1.7
			l0.6,1.6l0.5,1.6l0.5,1.6l0.4,1.6l0.4,1.6l0.4,1.5l0.3,1.5l0.3,1.5l0.2,1.5l0.2,1.5l0.1,1.5l0.1,1.5l0.1,1.4v1.4v1.4l-0.1,1.4
			l-0.1,1.5l-0.1,1.5l-0.2,1.5l-0.2,1.5l-0.3,1.5l-0.3,1.5l-0.4,1.6l-0.4,1.6l-0.4,1.6l-0.5,1.6l-0.5,1.6l-0.6,1.7l-0.6,1.7
			l-0.7,1.7l-0.7,1.7l-0.7,1.7L528,209l-0.8,1.7l-0.8,1.8l-0.9,1.8l-0.9,1.8l-1,1.8l-1,1.8l-1,1.8l-1.1,1.8l-1.1,1.8l-1.2,1.8
			l-1.2,1.8l-1.2,1.8l-1.3,1.8l-1.3,1.8l-1.3,1.8l-1.3,1.8l-1.4,1.8l-1.4,1.9l-1.5,1.8l-1.5,1.9l-1.5,1.9l-1.5,1.8l-1.6,1.9
			l-1.6,1.9l-1.7,1.9l-1.7,1.8l-1.7,1.9l-1.8,1.9l-1.8,1.8l-1.8,1.9l-1.8,1.8l-1.9,1.8l-1.9,1.8l-1.9,1.8l-2,1.8l-2,1.8l-2,1.8
			l-2.1,1.8l-2.1,1.8l-2.1,1.8l-2.1,1.8l-2.2,1.8l-2.2,1.8l-2.2,1.8l-2.3,1.8l-2.3,1.7l-2.3,1.8l-2.3,1.7l-2.4,1.7l-2.4,1.7
			l-2.4,1.7l-2.4,1.7l-2.5,1.7l-2.5,1.6l-2.5,1.6l-2.5,1.6l-2.6,1.6l-2.6,1.6L423,314l-2.6,1.5l-2.6,1.5l-2.7,1.5l-2.7,1.5l-2.7,1.5
			l-2.8,1.5l-2.8,1.4l-2.8,1.4l-2.8,1.4l-2.9,1.4l-2.9,1.3l-2.9,1.3l-2.9,1.3l-2.9,1.3l-2.9,1.2l-3,1.2l-3,1.2l-3,1.2l-3,1.1l-3,1.1
			l-3.1,1.1l-3.1,1l-3.1,1l-3.1,1l-3.1,1l-3.1,0.9l-3.2,0.9l-3.2,0.8l-3.2,0.8l-3.2,0.8l-3.2,0.8l-3.2,0.7l-3.2,0.7l-3.2,0.7
			l-3.3,0.6l-3.3,0.6l-3.3,0.6l-3.3,0.5l-3.3,0.4l-3.3,0.4l-3.4,0.4l-3.4,0.4l-3.4,0.3l-3.4,0.3l-3.4,0.2l-3.4,0.2l-3.4,0.1
			l-3.5,0.1l-3.5,0.1h-3.5h-3.5l-3.5-0.1l-3.5-0.1l-3.4-0.1l-3.4-0.2l-3.4-0.2l-3.4-0.3l-3.4-0.3l-3.4-0.4l-3.4-0.4l-3.3-0.4
			l-3.3-0.4l-3.3-0.5l-3.3-0.6l-3.3-0.6l-3.3-0.6l-3.2-0.7l-3.2-0.7l-3.2-0.7l-3.2-0.8l-3.2-0.8l-3.2-0.8l-3.2-0.8l-3.2-0.9
			l-3.1-0.9l-3.1-1l-3.1-1l-3.1-1l-3.1-1l-3.1-1.1l-3-1.1l-3-1.1l-3-1.2l-3-1.2l-3-1.2l-2.9-1.2l-2.9-1.3l-2.9-1.3l-2.9-1.3
			l-2.9-1.3l-2.9-1.4l-2.8-1.4l-2.8-1.4l-2.8-1.4l-2.8-1.5l-2.7-1.5l-2.7-1.5l-2.7-1.5l-2.6-1.5l-2.6-1.5l-2.6-1.5l-2.6-1.6
			l-2.6-1.6l-2.5-1.6l-2.5-1.6l-2.5-1.6l-2.5-1.7l-2.4-1.7l-2.4-1.7l-2.4-1.7l-2.4-1.7l-2.3-1.7l-2.3-1.8l-2.3-1.7L76,289l-2.2-1.8
			l-2.2-1.8l-2.2-1.8l-2.1-1.8l-2.1-1.8l-2.1-1.8l-2.1-1.8l-2-1.8l-2-1.8l-2-1.8l-1.9-1.8l-1.9-1.8l-1.9-1.8l-1.8-1.8l-1.8-1.9
			l-1.8-1.8l-1.8-1.9l-1.7-1.9l-1.7-1.8l-1.7-1.9l-1.6-1.9l-1.6-1.9l-1.5-1.8l-1.5-1.9l-1.5-1.9l-1.5-1.8l-1.4-1.9l-1.4-1.8
			l-1.3-1.8l-1.3-1.8l-1.3-1.8l-1.3-1.8l-1.2-1.8l-1.2-1.8l-1.2-1.8l-1.1-1.8l-1.1-1.8l-1-1.8l-1-1.8l-1-1.8l-0.9-1.8l-0.9-1.8
			L8.5,211l-0.8-1.7L7,207.6l-0.7-1.7l-0.7-1.7l-0.7-1.7l-0.6-1.7l-0.6-1.7l-0.5-1.6l-0.5-1.6l-0.4-1.6l-0.4-1.6l-0.4-1.6l-0.3-1.5
			l-0.3-1.5l-0.2-1.5l-0.2-1.5l-0.1-1.5l-0.1-1.5L0,180.7v-1.4v-1.4l0.1-1.4l0.1-1.5l0.1-1.5l0.2-1.5l0.2-1.5L1,169l0.3-1.5l0.4-1.5
			l0.4-1.6l0.4-1.6l0.5-1.6l0.5-1.6l0.6-1.6l0.6-1.7l0.7-1.7l0.7-1.7l0.7-1.7l0.7-1.7l0.8-1.7l0.8-1.8l0.9-1.8l0.9-1.8l1-1.8l1-1.8
			l1-1.8l1.1-1.8l1.1-1.8l1.2-1.8l1.2-1.8l1.2-1.8l1.3-1.8l1.3-1.8l1.3-1.8l1.3-1.9l1.4-1.8l1.4-1.8l1.5-1.9l1.5-1.8l1.5-1.9
			l1.5-1.9l1.6-1.9l1.6-1.8l1.7-1.9l1.7-1.9l1.7-1.8l1.8-1.9l1.8-1.9l1.8-1.8l1.8-1.8l1.9-1.9l1.9-1.8l1.9-1.8l2-1.8l2-1.8l2-1.8
			l2.1-1.8l2.1-1.8l2.1-1.8l2.1-1.8l2.2-1.8l2.2-1.8l2.2-1.8l2.3-1.8l2.3-1.8l2.3-1.7l2.3-1.7l2.4-1.7l2.4-1.7l2.4-1.7l2.4-1.7
			l2.5-1.6l2.8-2l2.5-1.6l2.5-1.6l2.6-1.6l2.6-1.5l2.6-1.6l2.6-1.5l2.6-1.5l2.7-1.5l2.7-1.5l2.7-1.5l2.8-1.4l2.8-1.4l2.8-1.4
			l2.8-1.4l2.9-1.3l2.9-1.3l2.9-1.3l2.9-1.3l2.9-1.3l2.9-1.2l3-1.2l3-1.2l3-1.2l3-1.1l3-1.1l3.1-1.1l3.1-1l3.1-1l3.1-1l3.1-1
			l3.1-0.9l3.2-0.9l3.2-0.9l3.2-0.8l3.2-0.8l3.2-0.7l3.2-0.7l3.2-0.7l3.2-0.7l3.3-0.6l3.3-0.6l3.3-0.5l3.3-0.5l3.3-0.5l3.3-0.4
			l3.4-0.4l3.4-0.3l3.4-0.3l3.4-0.3l3.4-0.2l3.4-0.2l3.4-0.1l3.5-0.1l3.5-0.1h3.5L271.3,0z M264.9,29.8l-3.1,0.1l-3.2,0.1l-3.1,0.1
			l-2.9,0.2l-3.1,0.2l-3,0.2l-3,0.3l-3,0.3l-3,0.4l-3.1,0.4l-2.9,0.4l-2.9,0.4l-3,0.5l-3,0.5l-2.8,0.5l-3,0.6l-3,0.6l-2.8,0.6
			l-3,0.8l-2.9,0.7l-2.9,0.7l-2.9,0.8l-2.9,0.8l-2.8,0.8l-2.9,0.9l-2.8,0.9l-2.7,0.9l-2.9,1l-2.8,1l-2.6,1l-2.8,1l-2.7,1l-2.7,1
			l-2.7,1.1l-2.7,1.1l-2.6,1.1l-2.6,1.2l-2.7,1.2l-2.6,1.2l-2.5,1.2l-2.6,1.3l-2.5,1.3l-2.5,1.3l-2.4,1.3l-2.6,1.4l-2.5,1.4
			l-2.4,1.3l-2.5,1.4l-2.4,1.4l-2.4,1.4l-2.3,1.4l-2.4,1.4l-2.3,1.5l-2.3,1.5l-2.4,1.5l-2.3,1.5l-2.1,1.5l-2.2,1.5l-2.2,1.6
			l-2.2,1.5l-2,1.5l-2.2,1.6l-2.1,1.6l-1.9,1.5l-2.2,1.7l-2,1.6L88.5,97l-2,1.7l-1.9,1.6l-1.9,1.6l-1.9,1.7l-1.9,1.7l-1.8,1.6
			l-1.7,1.5l-1.9,1.8l-1.7,1.6l-1.5,1.6l-1.8,1.8l-1.6,1.6l-1.6,1.7l-1.5,1.6l-1.4,1.5l-1.6,1.8l-1.5,1.7l-1.4,1.6l-1.4,1.7
			l-1.3,1.5l-1.3,1.6l-1.4,1.8l-1.3,1.6l-1.1,1.4l-1.2,1.7l-1.3,1.7l-1.2,1.6l-1,1.3l-1.1,1.6l-1.1,1.6l-1,1.4l-0.9,1.4l-0.9,1.5
			l-1,1.6l-0.8,1.5l-0.7,1.3l-0.8,1.4l-0.7,1.3l-0.7,1.5l-0.7,1.4l-0.6,1.3l-0.5,1.2l-0.5,1.3l-0.5,1.2l-0.4,1.2l-0.4,1.1l-0.4,1.1
			l-0.4,1.1l-0.3,1l-0.3,1l-0.2,0.7l-0.2,1l-0.2,1.2l-0.2,0.9l-0.1,0.5l-0.1,0.7l-0.1,0.7v0.4v0.7v0.6v0.6v0.6v0.4l0.2,1.5l0.1,0.5
			l0.2,0.9l0.2,1.2l0.2,0.9l0.2,0.7l0.3,1l0.3,1l0.4,1.1l0.4,1.1l0.4,1.1l0.4,1.2l1,2.4l0.6,1.3l0.6,1.2l1.4,2.9l0.7,1.3l0.8,1.4
			l0.7,1.3l0.8,1.5l1,1.6l0.9,1.5l0.9,1.4l1,1.4l2.2,3.2l1,1.5l1.1,1.5l1.2,1.6l2.5,3.3l2.6,3.2l2.7,3.3l1.4,1.6l1.4,1.6l1.5,1.7
			l1.6,1.8l1.4,1.5l1.5,1.6l1.6,1.7l4.9,4.9l3.6,3.4l1.7,1.6l1.8,1.6l3.8,3.4l1.9,1.6l1.9,1.6l2,1.7l1.9,1.5l4.2,3.3l1.9,1.5
			l4.3,3.2l2,1.5l2.2,1.5l2.2,1.6l2.2,1.5l2.1,1.5l2.3,1.5l2.4,1.5l2.3,1.5l2.3,1.4l2.4,1.5l2.3,1.4l2.4,1.4l2.4,1.4l2.5,1.4
			l2.4,1.4l2.5,1.4l2.6,1.4l2.4,1.3l2.5,1.3l2.5,1.3l2.6,1.3l2.5,1.2l5.3,2.4l2.6,1.2l2.6,1.1l2.7,1.1l2.7,1.1l2.7,1.1l2.6,1
			l5.7,2.1l2.8,1l2.8,1l2.7,0.9l2.8,0.9l2.9,0.9l2.8,0.8l2.9,0.8l2.9,0.8l2.9,0.7l2.9,0.7l2.8,0.7l5.9,1.3l5.9,1.2l5.9,1l6,0.9
			l3,0.4l3,0.4l6,0.6l3,0.2l3.1,0.2l2.9,0.1l3.1,0.1l3.2,0.1l3.1,0.1h3h3l3.1-0.1l3.2-0.1l3.1-0.1l2.9-0.1l3.1-0.2l3-0.2l3-0.3
			l3-0.3l3-0.4l3-0.4l3.1-0.4l2.9-0.4l2.9-0.5l2.9-0.5l2.9-0.6l3-0.6l3-0.7l2.9-0.6l2.8-0.7l2.9-0.7l2.9-0.7l2.9-0.8l2.9-0.8
			l2.8-0.8l2.9-0.9l2.8-0.9l2.7-0.9l2.8-1l2.8-1l2.9-1l2.8-1l2.6-1l2.7-1.1l2.7-1.1l2.7-1.1l2.6-1.1l2.6-1.2l2.7-1.3l2.6-1.2
			l2.5-1.2l2.6-1.3l2.5-1.3l2.5-1.3l2.4-1.3l2.6-1.4l2.5-1.4l2.4-1.4l2.5-1.4l2.4-1.4l2.4-1.4l2.3-1.4l2.4-1.5l2.3-1.4l2.3-1.5
			l2.4-1.5l2.3-1.5l2.1-1.5l2.2-1.5l2.2-1.6l2.2-1.5l2-1.5l2.2-1.6l2.1-1.6l1.9-1.5l2.2-1.7l2-1.6l1.9-1.5l2-1.7l1.9-1.6l1.9-1.6
			l1.9-1.7l1.9-1.7l1.8-1.6l1.7-1.6l1.8-1.7l1.8-1.7l1.6-1.6l1.7-1.7l1.6-1.6l1.6-1.7l1.5-1.6l1.4-1.5l1.6-1.8l1.5-1.7l1.4-1.6
			l1.4-1.6l1.4-1.7l1.4-1.7l1.3-1.7l1.2-1.5l1.2-1.6l1.3-1.7l1.2-1.6l1.1-1.5l1-1.5l1.1-1.7l1-1.6l1-1.4l0.9-1.4l0.9-1.5l1-1.6
			l0.8-1.5l0.7-1.3l0.8-1.4l0.7-1.3l0.7-1.5l0.7-1.4l0.6-1.2l0.6-1.3l0.6-1.3l0.5-1.1l0.4-1.2l0.4-1.1l0.4-1.1l0.4-1.1l0.3-1l0.3-1
			l0.2-0.7l0.2-0.9l0.2-1.2l0.2-0.9l0.1-0.5l0.1-0.7l0.1-0.7v-0.4v-0.6V179v-0.6v-0.7v-0.4l-0.1-0.7l-0.1-0.7l-0.1-0.5l-0.2-0.9
			l-0.2-1.2l-0.2-1l-0.2-0.7l-0.3-1l-0.3-1l-0.4-1.1l-0.4-1.1l-0.4-1.1l-0.4-1.2l-0.5-1.2l-0.5-1.3l-0.5-1.2l-0.6-1.3l-0.7-1.4
			l-0.7-1.5l-0.7-1.3l-0.8-1.4l-0.7-1.3l-0.8-1.5l-1-1.6l-0.9-1.5l-0.9-1.4l-1-1.4l-1.1-1.6l-1.1-1.6l-1-1.3l-1.2-1.6l-1.3-1.7
			l-1.2-1.7l-1.1-1.4l-1.3-1.6l-1.4-1.8l-1.3-1.6l-1.3-1.5l-1.4-1.7l-1.4-1.6l-1.5-1.7l-1.6-1.8l-1.4-1.5l-1.5-1.6l-1.6-1.7
			l-1.6-1.6l-1.8-1.8l-1.5-1.6l-1.7-1.6l-1.9-1.8l-1.7-1.5l-1.8-1.6l-1.9-1.7l-1.9-1.7l-1.9-1.6l-1.9-1.6l-2-1.7l-1.9-1.5l-2-1.6
			l-2.2-1.7l-1.9-1.5l-2.1-1.6l-2.2-1.6l-2-1.5l-2.2-1.5l-2.2-1.6l-2.2-1.5l-2.1-1.5l-2.3-1.5l-2.4-1.5l-2.3-1.5l-2.3-1.5l-2.4-1.4
			l-2.3-1.4l-2.4-1.4l-2.4-1.4l-2.5-1.4l-2.4-1.3l-2.5-1.4l-2.6-1.4l-2.4-1.3l-2.5-1.3L388,59l-2.6-1.3l-2.5-1.2l-2.6-1.2l-2.7-1.2
			l-2.6-1.2l-2.6-1.1l-2.7-1.1l-2.7-1.1l-2.7-1l-2.7-1l-2.8-1l-2.6-1l-2.8-1l-2.9-1l-2.7-0.9l-2.8-0.9l-2.9-0.9l-2.8-0.8l-2.9-0.8
			l-2.9-0.8l-2.9-0.7l-2.9-0.7l-2.9-0.7l-2.8-0.6l-3-0.6l-3-0.6l-2.8-0.5l-3-0.5l-3-0.5l-2.9-0.4l-2.9-0.4l-3.1-0.4l-3-0.4l-3-0.3
			l-3-0.3l-3-0.2l-3.1-0.2l-2.9-0.2l-3.1-0.1l-3.2-0.1l-3.1-0.1h-3L264.9,29.8z"/>
		<path class="st0" d="M270.1,93.5l2.2,0.1l2.2,0.1l2.2,0.2l2.1,0.2l2.1,0.3l2.1,0.4l2.1,0.4l2.1,0.5l2.1,0.5l2.1,0.6l2,0.6l2,0.7
			l2,0.7l1.9,0.7l1.9,0.8l1.9,0.8l1.9,0.9l1.9,0.9l1.8,1l1.8,1l1.8,1l1.8,1.1l1.7,1.1l1.7,1.2l1.7,1.2l1.6,1.3l1.6,1.3l1.6,1.3
			l1.5,1.4l1.5,1.4l1.5,1.4l1.4,1.5l1.4,1.5l1.4,1.5l1.3,1.6l1.3,1.6l1.3,1.6l1.2,1.7l1.2,1.7l1.1,1.7l1.1,1.8l1,1.8l1,1.8l1,1.8
			l0.9,1.9l0.9,1.9l0.9,1.9l0.8,1.9l0.7,2l0.7,2l0.6,2l0.6,2l0.5,2.1l0.5,2.1l0.5,2.1l0.4,2.1l0.4,2.1l0.3,2.1l0.2,2.1l0.2,2.2
			l0.1,2.2l0.1,2.2v2.2v2.2l-0.1,2.2l-0.1,2.2l-0.2,2.2l-0.2,2.2l-0.3,2.1l-0.4,2.1l-0.4,2.1l-0.5,2.1l-0.5,2.1l-0.5,2l-0.6,2
			l-0.6,2l-0.7,2l-0.7,2l-0.8,1.9l-0.9,1.9l-0.9,1.9l-0.9,1.8l-1,1.8l-1,1.8l-1,1.8l-1.1,1.8l-1.1,1.7l-1.2,1.7l-1.2,1.7l-1.3,1.6
			l-1.3,1.6l-1.3,1.6l-1.4,1.5l-1.4,1.5l-1.4,1.5l-1.5,1.5l-1.5,1.4l-1.5,1.4l-1.6,1.3l-1.6,1.3l-1.6,1.3l-1.7,1.2l-1.7,1.2
			l-1.7,1.2l-1.8,1.1l-1.8,1.1l-1.8,1l-1.8,1l-1.9,1l-1.9,0.9l-1.9,0.8l-1.9,0.8l-1.9,0.7l-2,0.7l-2,0.7l-2,0.6l-2.1,0.5l-2.1,0.5
			l-2.1,0.4l-2.1,0.4l-2.1,0.4l-2.1,0.3l-2.1,0.2l-2.2,0.2l-2.2,0.1l-2.2,0.1h-2.2h-2.2l-2.2-0.1l-2.2-0.1l-2.2-0.2l-2.1-0.2
			l-2.1-0.3l-2.1-0.4l-2.1-0.4l-2.1-0.4l-2.1-0.5l-2.1-0.5l-2-0.6l-2-0.7l-2-0.7l-1.9-0.7l-1.9-0.8l-1.9-0.8l-1.9-0.9l-1.9-1l-1.8-1
			l-1.8-1l-1.8-1.1l-1.8-1.1l-1.7-1.2l-1.7-1.2l-1.7-1.2l-1.6-1.3l-1.6-1.3l-1.6-1.3l-1.5-1.4l-1.5-1.4l-1.5-1.5l-1.4-1.5l-1.4-1.5
			l-1.4-1.5l-1.3-1.6l-1.3-1.6l-1.3-1.6l-1.2-1.7l-1.2-1.7l-1.1-1.7l-1.1-1.8l-1-1.8l-1-1.8l-1-1.8l-0.9-1.8l-0.9-1.9l-0.9-1.9
			l-0.8-1.9l-0.7-2l-0.7-2l-0.6-2l-0.6-2l-0.5-2l-0.5-2.1l-0.5-2.1l-0.4-2.1l-0.4-2.1l-0.3-2.1l-0.2-2.2l-0.2-2.2l-0.1-2.2l-0.1-2.2
			v-2.2v-2.2l0.1-2.2l0.1-2.2l0.2-2.2l0.2-2.1l0.3-2.1l0.4-2.1l0.4-2.1l0.5-2.1l0.5-2.1l0.5-2.1l0.6-2l0.6-2l0.7-2l0.7-2l0.8-1.9
			l0.9-1.9l0.9-1.9l0.9-1.9l1-1.8l1-1.8l1-1.8l1.1-1.8l1.1-1.7l1.2-1.7l1.2-1.7l1.3-1.6l1.3-1.6l1.3-1.6l1.4-1.5l1.4-1.5l1.4-1.5
			l1.5-1.4l1.5-1.4l1.5-1.4l1.6-1.3l1.6-1.3l1.6-1.3l1.7-1.2l1.7-1.2l1.7-1.1l1.8-1.1l1.8-1l1.8-1l1.8-1l1.9-0.9l1.9-0.9l1.9-0.8
			l1.9-0.8l1.9-0.7l2-0.7l2-0.7l2-0.6l2.1-0.6l2.1-0.5l2.1-0.5l2.1-0.4l2.1-0.4l2.1-0.3l2.1-0.2l2.2-0.2l2.2-0.1l2.2-0.1h2.2H270.1z
			 M266.4,123.3H265l-1.3,0.1l-1.6,0.1l-1.4,0.1l-1.4,0.2l-1.4,0.2l-1.4,0.3l-1.4,0.3l-1.3,0.3l-1.3,0.4l-1.3,0.4l-1.3,0.4l-1.4,0.5
			l-1.3,0.5l-1.2,0.5l-1.2,0.5l-1.4,0.6l-1.1,0.6l-1.1,0.6l-1.3,0.7l-1.1,0.7l-1.1,0.7l-1.2,0.8l-1.1,0.7l-1.1,0.8l-1.2,0.9l-1,0.8
			l-1,0.9l-0.9,0.8l-0.9,0.9l-1.1,1.1l-1,1l-0.9,1l-1,1.1l-0.7,0.9l-0.8,1.1l-1,1.3l-0.7,1l-0.7,1l-0.8,1.2l-0.8,1.3l-0.6,1.1
			l-0.6,1.1l-0.7,1.3l-0.7,1.3l-0.6,1.2l-0.5,1.2l-0.5,1.3l-0.6,1.5l-0.5,1.3l-0.3,1l-0.4,1.3l-0.4,1.5l-0.3,1.3l-0.1,1l-0.3,1.4
			l-0.2,1.4l-0.2,1.4l-0.1,1.4L212,175l-0.1,1.3v1.5v1.5l0.1,3l0.1,1.3l0.1,1.5l0.1,1.4l0.2,1.4l0.2,1.4l0.3,1.4l0.3,1.3l0.3,1.3
			l0.4,1.5l0.4,1.3l0.3,1l0.5,1.3l0.5,1.4l0.6,1.4l0.5,1.2l0.5,1.1l0.7,1.3l0.7,1.3l0.6,1.1l0.6,1l0.8,1.2l0.8,1.2l0.7,1l0.7,1
			l1,1.3l0.8,1.1l0.7,0.9l1,1.1l0.9,1l1,1l1,1l1,0.9l1,0.9l1,0.8l1,0.8l1.2,0.9l1.1,0.8l1.1,0.7l1.2,0.8l1.1,0.7l1.1,0.7l1.3,0.7
			l1.1,0.6l1.1,0.5l1.4,0.7l1.2,0.5l1.2,0.4l1.3,0.5l1.4,0.5l1.3,0.4l1.3,0.4l1.4,0.4l1.4,0.3l1.3,0.3l1.4,0.3l1.4,0.2l1.4,0.2
			l1.4,0.1l1.5,0.1l1.4,0.1l1.5,0.1h1.4h1.4l1.5-0.1l1.4-0.1l1.5-0.1l1.4-0.1l1.4-0.2l1.4-0.2l1.4-0.3l1.3-0.3l1.4-0.3l1.4-0.4
			l1.3-0.4l1.3-0.4l1.4-0.5l1.3-0.5l1.2-0.4l1.2-0.5l1.4-0.7l1.1-0.5l1.1-0.6l1.3-0.7l1.1-0.7l1.1-0.7l1.2-0.8l1.1-0.7l1.1-0.8
			l1.2-0.9l1-0.8l1-0.8l1-0.9l1-0.9l1-1l1-1l0.9-1l1-1.1l0.9-1l0.7-0.9l0.9-1.1l0.8-1.1l0.7-1l0.8-1.2l0.8-1.2l0.6-1l0.6-1.1
			l0.7-1.3l0.7-1.3l0.5-1.1l0.5-1.2l0.6-1.4l0.5-1.4l0.5-1.3l0.3-1l0.4-1.3l0.4-1.5l0.3-1.3l0.3-1.3l0.3-1.4l0.2-1.4l0.2-1.4
			l0.1-1.4l0.1-1.5l0.1-1.3V181v-1.5V178v-1.5l-0.1-1.3l-0.1-1.5l-0.1-1.4l-0.2-1.4l-0.2-1.4l-0.3-1.4l-0.3-1.3l-0.3-1.3l-0.4-1.5
			l-0.4-1.3l-0.3-1l-0.5-1.3l-0.6-1.5l-0.5-1.3l-0.5-1.2l-0.6-1.2l-0.7-1.3l-0.7-1.3l-0.6-1.1l-0.6-1.1l-0.8-1.3l-0.8-1.2l-0.7-1
			l-0.8-1.1l-0.9-1.1l-0.7-0.9l-0.9-1l-1-1.1l-0.9-1l-1-1l-1.1-1.1l-0.9-0.9l-0.9-0.8l-1-0.9l-1-0.8l-1.2-0.9l-1.1-0.8l-1.1-0.7
			l-1.2-0.8l-1.1-0.7l-1.1-0.7l-1.3-0.7l-1.1-0.6l-1.1-0.6l-1.4-0.6l-1.2-0.5l-1.2-0.5l-1.3-0.5l-1.4-0.5l-1.3-0.4l-1.3-0.4
			l-1.3-0.4l-1.3-0.3l-1.4-0.3l-1.4-0.3l-1.4-0.2l-1.4-0.2l-1.4-0.1l-1.6-0.1l-1.3-0.1h-1.4h-1.5H266.4z"/>
	</g>
</g>
</svg>
