<?xml version="1.0" encoding="utf-8"?>
<!-- Generator: Adobe Illustrator 23.0.0, SVG Export Plug-In . SVG Version: 6.00 Build 0)  -->
<svg version="1.1" id="图层_1" xmlns="http://www.w3.org/2000/svg" xmlns:xlink="http://www.w3.org/1999/xlink" x="0px" y="0px"
	 viewBox="0 0 537 397" style="enable-background:new 0 0 537 397;" xml:space="preserve">
<style type="text/css">
	.st0{fill:#F8B500;}
</style>
<title>ICON-WIFI</title>
<desc>Created with Sketch.</desc>
<g id="Page-1">
	<g id="ICON-WIFI">
		<path id="ICON-WIFI1" class="st0" d="M234.6,363.3c0,18.4,15.2,33.6,33.6,33.6s33.6-15.2,33.6-33.6c0-18.4-15.2-33.6-33.6-33.6
			S234.6,344.9,234.6,363.3z M336.7,304.3c-6.1,0-12.2-2.3-16.9-7c-13.8-13.8-32.1-21.4-51.7-21.4s-37.9,7.6-51.7,21.4
			c-9.3,9.3-24.4,9.3-33.7,0c-9.3-9.3-9.3-24.4,0-33.7c22.8-22.8,53.2-35.4,85.4-35.4c32.3,0,62.6,12.6,85.4,35.4
			c9.3,9.3,9.3,24.4,0,33.7C349,301.9,342.8,304.3,336.7,304.3z M435.1,232.1c-6.1,0-12.2-2.3-16.9-7c-82.7-82.7-217.3-82.7-300,0
			c-9.3,9.3-24.4,9.3-33.7,0c-9.3-9.3-9.3-24.4,0-33.7c24.8-24.8,53.7-44.1,86-57.1c31.1-12.6,64-19,97.7-19s66.6,6.4,97.7,19
			c32.3,13.1,61.2,32.3,86,57.1c9.3,9.3,9.3,24.4,0,33.7C447.3,229.8,441.2,232.1,435.1,232.1z M23.9,149c-6.1,0-12.2-2.3-16.9-7
			c-9.3-9.3-9.3-24.4,0-33.7C42.3,73,83.4,45.7,129.2,27.1c44.2-18,91-27.1,139-27.1s94.7,9.1,139,27.1
			C453,45.7,494.1,73,529.4,108.3c9.3,9.3,9.3,24.4,0,33.7c-9.3,9.3-24.4,9.3-33.7,0c-60.8-60.8-141.6-94.3-227.5-94.3
			S101.5,81.2,40.7,142C36,146.6,29.9,149,23.9,149z"/>
	</g>
</g>
</svg>
