<?xml version="1.0" encoding="utf-8"?>
<!-- Generator: Adobe Illustrator 22.1.0, SVG Export Plug-In . SVG Version: 6.00 Build 0)  -->
<svg version="1.1" id="图层_1" xmlns="http://www.w3.org/2000/svg" xmlns:xlink="http://www.w3.org/1999/xlink" x="0px" y="0px"
	 viewBox="0 0 100 100" style="enable-background:new 0 0 100 100;" xml:space="preserve">
<style type="text/css">
	.st0{fill:#F5FAE1;}
	.st1{filter:url(#Adobe_OpacityMaskFilter);}
	.st2{fill:#FFFFFF;}
	.st3{mask:url(#mask-2_1_);}
	.st4{fill:#E2A500;}
	.st5{fill:#EDBC98;}
	.st6{fill:#E8B895;}
	.st7{fill:#FFCAA3;}
	.st8{fill:#674208;}
</style>
<title>icon-heads</title>
<desc>Created with Sketch.</desc>
<g id="页面-1">
	<g id="icon-heads">
		<g id="编组_1_">
			<g id="蒙版">
				<circle id="path-1_1_" class="st0" cx="50" cy="50" r="49.9"/>
			</g>
			<defs>
				<filter id="Adobe_OpacityMaskFilter" filterUnits="userSpaceOnUse" x="7.6" y="12.6" width="82.6" height="95.3">
					<feColorMatrix  type="matrix" values="1 0 0 0 0  0 1 0 0 0  0 0 1 0 0  0 0 0 1 0"/>
				</filter>
			</defs>
			<mask maskUnits="userSpaceOnUse" x="7.6" y="12.6" width="82.6" height="95.3" id="mask-2_1_">
				<g class="st1">
					<circle id="path-1_2_" class="st2" cx="50" cy="50" r="49.9"/>
				</g>
			</mask>
			<g class="st3">
				<g transform="translate(7.000000, 12.000000)">
					<path id="路径" class="st4" d="M48.2,60.9H35.6c-19.4,0-35,15.7-35,35h82.6C83.2,76.6,67.5,60.9,48.2,60.9L48.2,60.9z"/>
					<g id="编组" transform="translate(19.000000, 26.000000)">
						<path id="路径_1_" class="st5" d="M7.2,17.7C5.9,18.5,4,18,3,16.8c-1-1.2-1.3-2.8-1.4-4.3s0-3.1-0.3-4.6
							C1.1,6.7,0.6,5.5,0.4,4.3s0.1-2.6,1-3.4C2.5,0,4.1,0.2,5.2,1S7,3,7.6,4.2C9.8,8.4,8.9,13.4,7.2,17.7L7.2,17.7z"/>
						<path id="路径_2_" class="st5" d="M38.6,17.7c1.3,0.8,3.1,0.3,4.1-0.9c1-1.2,1.3-2.8,1.4-4.3c0.1-1.6,0-3.1,0.3-4.6
							c0.2-1.2,0.7-2.4,0.9-3.6s-0.1-2.6-1-3.4C43.2,0,41.6,0.2,40.5,1s-1.8,2-2.4,3.2C36,8.4,36.8,13.4,38.6,17.7L38.6,17.7z"/>
					</g>
					<path id="路径_3_" class="st6" d="M52.8,65.9c-6.2,5.6-15.6,5.6-21.8,0V42.5h21.8V65.9z"/>
					<path id="路径_4_" class="st7" d="M41.9,60.9c-10.1,0-18.2-8.2-18.2-18.2v-26h36.4v26C60.1,52.8,52,60.9,41.9,60.9z"/>
					<path id="路径_5_" class="st8" d="M61.4,10.5C58,4.7,51.5,0.8,44.8,0.6c-5.6-0.2-11.1,2.2-15,6.2c-1.4,0.3-2.6,0.9-3.7,1.7
						c-4.2,3.2-5.9,11.5-5.7,16.3c0.2,4.8,2,9.5,3.8,14c1.2-4.3,1.8-8.8,1.7-13.2L42,25.3l16,0.4c-0.1,4.4,0.5,8.9,1.7,13.2
						c1.8-4.5,3.5-9.1,3.8-13.8C64.6,20.1,63.9,14.8,61.4,10.5z"/>
				</g>
			</g>
		</g>
	</g>
</g>
</svg>
