<?xml version="1.0" encoding="UTF-8" standalone="no"?>
<!DOCTYPE svg PUBLIC "-//W3C//DTD SVG 1.1//EN" "http://www.w3.org/Graphics/SVG/1.1/DTD/svg11.dtd">
<svg width="100%" height="100%" viewBox="0 0 16 16" version="1.1" xmlns="http://www.w3.org/2000/svg" xmlns:xlink="http://www.w3.org/1999/xlink" xml:space="preserve" xmlns:serif="http://www.serif.com/" style="fill-rule:evenodd;clip-rule:evenodd;stroke-linejoin:round;stroke-miterlimit:1.41421;">
    <g id="icon-nor">
        <circle cx="8" cy="8" r="7" style="fill:none;stroke:rgb(122,143,159);stroke-width:1px;"/>
        <path d="M8.221,11.802L8.221,10.918L7.149,10.918L7.149,11.802L8.221,11.802ZM8.221,9.92L8.221,9.27C8.221,8.783 8.306,8.425 8.476,8.198C8.645,7.97 8.862,7.753 9.126,7.548L9.541,7.233C9.979,6.893 10.241,6.609 10.328,6.379C10.415,6.148 10.459,5.958 10.459,5.806C10.459,5.524 10.353,5.26 10.141,5.012C9.929,4.764 9.623,4.566 9.223,4.419C8.823,4.271 8.393,4.198 7.933,4.198C7.495,4.198 7.089,4.263 6.714,4.395C6.338,4.527 6.049,4.71 5.846,4.945C5.643,5.179 5.541,5.406 5.541,5.625L5.541,5.678L6.66,5.678L6.66,5.625C6.66,5.388 6.763,5.214 6.968,5.102C7.174,4.99 7.455,4.935 7.812,4.935C8.246,4.935 8.61,5.024 8.905,5.203C9.199,5.381 9.347,5.605 9.347,5.873C9.347,6.033 9.284,6.197 9.159,6.362C9.034,6.527 8.826,6.741 8.536,7.005L8.08,7.414C7.853,7.61 7.64,7.873 7.444,8.201C7.247,8.529 7.149,8.953 7.149,9.471L7.149,9.92L8.221,9.92Z" style="fill:rgb(122,143,159);"/>
    </g>
</svg>
