<?xml version="1.0" encoding="utf-8"?>
<!-- Generator: Adobe Illustrator 23.0.0, SVG Export Plug-In . SVG Version: 6.00 Build 0)  -->
<svg version="1.1" id="图层_1" xmlns="http://www.w3.org/2000/svg" xmlns:xlink="http://www.w3.org/1999/xlink" x="0px" y="0px"
	 viewBox="0 0 112 22" style="enable-background:new 0 0 112 22;" xml:space="preserve">
<style type="text/css">
	.st0{fill-rule:evenodd;clip-rule:evenodd;fill:#FFFFFF;}
	.st1{fill-rule:evenodd;clip-rule:evenodd;fill:#F8B500;}
</style>
<title>logo-footer</title>
<desc>Created with Sketch.</desc>
<g id="Page-1">
	<g id="logo-footer">
		<g id="编组-4" transform="translate(0.000000, 0.921711)">
			<polygon id="Fill-1-Copy-2" class="st0" points="14.1,0 6.8,17.9 12.3,17.9 17.7,4.8 24.1,4.8 26.5,0 			"/>
			<polygon id="Fill-2-Copy-2" class="st1" points="9.3,2.2 2.4,2.2 0,7 7.4,7 2,20.1 7.5,20.1 14.8,2.2 			"/>
		</g>
		<path id="TIGERMEX" class="st1" d="M26.9,7.9V6.1h9.7v1.8h-3.8v10.3h-2.1V7.9H26.9z M38.4,18.2V6.1h2.1v12.1H38.4z M42.8,12.1
			c0-1.8,0.6-3.3,1.8-4.5s2.7-1.7,4.5-1.7c1.3,0,2.5,0.3,3.5,0.9V9c-0.4-0.4-0.9-0.7-1.5-0.9s-1.2-0.3-1.9-0.3c-1.2,0-2.2,0.4-3,1.2
			c-0.8,0.8-1.2,1.9-1.2,3.2c0,1.3,0.4,2.4,1.2,3.2c0.8,0.8,1.8,1.2,3,1.2c0.7,0,1.3-0.1,1.8-0.3v-3.7H53v4.9
			c-0.5,0.3-1,0.5-1.7,0.7c-0.7,0.2-1.4,0.2-2.2,0.2c-1.9,0-3.4-0.6-4.6-1.7S42.8,14,42.8,12.1z M55.5,18.2V6.1h7.4v1.8h-5.3v3.2
			h4.9V13h-4.9v3.4H63v1.8H55.5z M65.5,18.2V6.1c0.9-0.2,1.9-0.2,3-0.2c1.6,0,2.8,0.3,3.6,1s1.3,1.7,1.3,2.9c0,0.9-0.2,1.6-0.7,2.2
			c-0.4,0.6-1,1.1-1.7,1.4l3.6,4.8h-2.5l-3.2-4.3h-1.4v4.3H65.5z M67.5,12.2h1c0.8,0,1.5-0.2,2-0.6s0.7-1,0.7-1.7
			c0-0.7-0.2-1.2-0.7-1.6c-0.5-0.4-1.2-0.6-2.1-0.6c-0.3,0-0.6,0-0.9,0V12.2z M75.3,18.2l1.9-12.1h2.6l2.9,9.6l2.9-9.6h2.6l1.9,12.1
			H88l-1.5-9.4l-2.9,9.4h-2l-2.9-9.4l-1.5,9.4H75.3z M92.3,18.2V6.1h7.4v1.8h-5.3v3.2h4.9V13h-4.9v3.4h5.5v1.8H92.3z M100.9,18.2
			l4.3-6.3l-4-5.8h2.4l2.8,4.2l2.8-4.2h2.3l-4,5.8l4.3,6.3h-2.4l-3.1-4.6l-3.2,4.6H100.9z"/>
	</g>
</g>
</svg>
