<?xml version="1.0" encoding="utf-8"?>
<!-- Generator: Adobe Illustrator 22.1.0, SVG Export Plug-In . SVG Version: 6.00 Build 0)  -->
<svg version="1.1" id="图层_1" xmlns="http://www.w3.org/2000/svg" xmlns:xlink="http://www.w3.org/1999/xlink" x="0px" y="0px"
	 viewBox="0 0 100 100" style="enable-background:new 0 0 100 100;" xml:space="preserve">
<style type="text/css">
	.st0{fill:none;}
	.st1{fill:#FCC194;}
	.st2{fill:#C18C66;}
	.st3{filter:url(#Adobe_OpacityMaskFilter);}
	.st4{fill:#FFFFFF;}
	.st5{mask:url(#mask-2_1_);}
	.st6{filter:url(#Adobe_OpacityMaskFilter_1_);}
	.st7{mask:url(#mask-2_2_);fill:#FFFFFF;}
	.st8{fill:#C18C66;fill-opacity:0.6;}
</style>
<title>Icon-TUSD</title>
<desc>Created with Sketch.</desc>
<g id="Icon-TUSD">
	<g>
		<rect id="矩形" class="st0" width="100" height="100"/>
		<g id="编组-2" transform="translate(15.000000, 15.000000)">
			<g id="编组_1_">
				<ellipse id="椭圆形" class="st1" cx="35" cy="35" rx="35" ry="34.9"/>
				<ellipse id="椭圆形_1_" class="st2" cx="35" cy="35" rx="30.5" ry="30.5"/>
				<g id="编组-_x2B_-TUSD蒙版_1_" transform="translate(6.001623, 7.596296)">
					<g id="蒙版_1_" transform="translate(0.648148, 0.000000)">
						<g id="编组-_x2B_-TUSD蒙版" transform="translate(0.226852, 0.000000)">
							<g id="蒙版">
								<ellipse id="path-1_1_" class="st1" cx="28.1" cy="27.4" rx="27.4" ry="27.4"/>
							</g>
							<defs>
								<filter id="Adobe_OpacityMaskFilter" filterUnits="userSpaceOnUse" x="-3.4" y="43" width="63.1" height="11.9">
									<feColorMatrix  type="matrix" values="1 0 0 0 0  0 1 0 0 0  0 0 1 0 0  0 0 0 1 0"/>
								</filter>
							</defs>
							<mask maskUnits="userSpaceOnUse" x="-3.4" y="43" width="63.1" height="11.9" id="mask-2_1_">
								<g class="st3">
									<ellipse id="path-1_2_" class="st4" cx="28.1" cy="27.4" rx="27.4" ry="27.4"/>
								</g>
							</mask>
							<g id="编组" class="st5">
								<g id="矩形_1_" transform="translate(-3.500000, 42.907407)">
									<g transform="translate(0.000000, 0.051852)">
										<rect x="0.1" y="0.1" class="st2" width="63.1" height="11.9"/>
									</g>
								</g>
							</g>
							<defs>
								<filter id="Adobe_OpacityMaskFilter_1_" filterUnits="userSpaceOnUse" x="14.1" y="45.7" width="26.8" height="6.7">
									<feColorMatrix  type="matrix" values="1 0 0 0 0  0 1 0 0 0  0 0 1 0 0  0 0 0 1 0"/>
								</filter>
							</defs>
							<mask maskUnits="userSpaceOnUse" x="14.1" y="45.7" width="26.8" height="6.7" id="mask-2_2_">
								<g class="st6">
									<ellipse id="path-1_3_" class="st4" cx="28.1" cy="27.4" rx="27.4" ry="27.4"/>
								</g>
							</mask>
							<path id="TUSD" class="st7" d="M14.1,45.8h5.3v0.8h-2.2v5.6h-1v-5.6h-2.2V45.8z M21.1,45.8h1v4c0,0.6,0.1,1,0.4,1.3
								c0.3,0.3,0.7,0.4,1.3,0.4c0.6,0,1-0.1,1.3-0.4c0.3-0.3,0.4-0.7,0.4-1.3v-4h1v4c0,0.8-0.2,1.5-0.7,1.9c-0.5,0.4-1.1,0.7-2,0.7
								c-0.9,0-1.5-0.2-2-0.6c-0.5-0.5-0.7-1.1-0.7-1.9L21.1,45.8L21.1,45.8z M30.9,45.7c0.8,0,1.3,0.2,1.8,0.5
								c0.5,0.3,0.7,0.9,0.8,1.6h-1c-0.1-0.4-0.3-0.7-0.5-0.9c-0.3-0.2-0.6-0.3-1.1-0.3c-0.4,0-0.8,0.1-1,0.2
								c-0.3,0.1-0.4,0.4-0.4,0.7c0,0.3,0.2,0.5,0.5,0.7c0.1,0.1,0.5,0.2,1.1,0.4c0.9,0.3,1.4,0.5,1.7,0.6c0.6,0.3,0.8,0.8,0.8,1.4
								c0,0.6-0.2,1-0.7,1.4c-0.5,0.3-1.1,0.5-1.9,0.5c-0.8,0-1.4-0.2-1.9-0.5c-0.5-0.4-0.8-1-0.9-1.8h1c0.1,0.5,0.3,0.9,0.5,1.1
								c0.3,0.2,0.7,0.3,1.2,0.3c0.5,0,0.9-0.1,1.2-0.3c0.3-0.2,0.4-0.4,0.4-0.7c0-0.4-0.2-0.6-0.6-0.9c-0.1-0.1-0.6-0.2-1.3-0.4
								c-0.8-0.3-1.3-0.4-1.5-0.5c-0.5-0.3-0.7-0.7-0.7-1.3c0-0.6,0.2-1,0.7-1.3C29.7,45.8,30.2,45.7,30.9,45.7z M35.4,45.8h2.4
								c1,0,1.8,0.3,2.4,0.9c0.5,0.5,0.8,1.3,0.8,2.4c0,1-0.3,1.8-0.8,2.4c-0.5,0.6-1.3,0.9-2.4,0.9h-2.3V45.8L35.4,45.8z
								 M36.4,46.7v4.8h1.2c0.8,0,1.4-0.2,1.8-0.6c0.4-0.4,0.6-1,0.6-1.8c0-0.8-0.2-1.4-0.6-1.8c-0.4-0.4-1-0.6-1.8-0.6H36.4z"/>
						</g>
					</g>
				</g>
			</g>
			<g id="编组-4" transform="translate(21.000000, 23.981481)">
				<polygon id="Fill-1-Copy-2" class="st8" points="15.4,0 7.4,19.5 13.4,19.5 19.2,5.2 26.2,5.2 28.9,0 				"/>
				<polygon id="Fill-2-Copy-2" class="st2" points="10.1,2.4 2.6,2.4 0,7.6 8,7.6 2.2,21.9 8.2,21.9 16.2,2.4 				"/>
			</g>
		</g>
	</g>
</g>
</svg>
