<?xml version="1.0" encoding="utf-8"?>
<!-- Generator: Adobe Illustrator 22.1.0, SVG Export Plug-In . SVG Version: 6.00 Build 0)  -->
<svg version="1.1" id="图层_1" xmlns:serif="http://www.serif.com/"
	 xmlns="http://www.w3.org/2000/svg" xmlns:xlink="http://www.w3.org/1999/xlink" x="0px" y="0px" viewBox="0 0 595.3 841.9"
	 style="enable-background:new 0 0 595.3 841.9;" xml:space="preserve">
<style type="text/css">
	.st0{fill:none;}
	.st1{fill:#FCC194;}
	.st2{fill:#C18C66;}
</style>
<circle class="st0" cx="297.6" cy="420.9" r="297.6"/>
<circle class="st1" cx="297.6" cy="420.9" r="297.6"/>
<path class="st2" d="M368.5,570.4h-242c-0.2-3.1-0.3-6.3-0.3-9.4c0-92.9,74.7-168.3,166.8-168.3c41.8,0,80,15.5,109.3,41.2
	c-26.1,22.4-42.5,55.2-42.5,91.7C359.7,541.3,362.8,556.5,368.5,570.4z M451.1,520v35.2c0,6.2-5.1,11.3-11.3,11.3
	c-6.2,0-11.3-5.1-11.3-11.3V520h-35.2c-6.2,0-11.3-5.1-11.3-11.3c0-6.2,5.1-11.3,11.3-11.3h35.2v-35.2c0-6.2,5.1-11.3,11.3-11.3
	c6.2,0,11.3,5.1,11.3,11.3v35.2h35.2c6.2,0,11.3,5.1,11.3,11.3c0,6.2-5.1,11.3-11.3,11.3H451.1z M293,231.8
	c44.4,0,80.4,36,80.4,80.4s-36,80.4-80.4,80.4s-80.4-36-80.4-80.4S248.6,231.8,293,231.8z"/>
</svg>
