<?xml version="1.0" encoding="utf-8"?>
<!-- Generator: Adobe Illustrator 22.1.0, SVG Export Plug-In . SVG Version: 6.00 Build 0)  -->
<svg version="1.1" id="图层_1" xmlns:serif="http://www.serif.com/"
	 xmlns="http://www.w3.org/2000/svg" xmlns:xlink="http://www.w3.org/1999/xlink" x="0px" y="0px" viewBox="0 0 595.3 841.9"
	 style="enable-background:new 0 0 595.3 841.9;" xml:space="preserve">
<style type="text/css">
	.st0{fill:none;}
	.st1{fill:#FCC194;}
	.st2{fill:#C18C66;}
</style>
<circle class="st0" cx="297.6" cy="420.9" r="297.6"/>
<g>
	<circle class="st1" cx="297.6" cy="420.9" r="297.6"/>
	<circle class="st2" cx="409.2" cy="433.5" r="15.8"/>
	<path class="st2" d="M439.8,556.5H155.5c-16.3,0-29.5-13.2-29.5-29.5V340.1c0-16.3,13.2-29.5,29.5-29.5h284.3
		c16.3,0,29.5,13.2,29.5,29.5v60.5h-73.4c-18.2,0-32.9,14.7-32.9,32.9c0,18.2,14.7,32.9,32.9,32.9h73.4v60.5
		C469.3,543.2,456.1,556.5,439.8,556.5z"/>
	<path class="st2" d="M407.2,301.5H157.6L362,246.8c15.7-4.2,31.9,5.1,36.1,20.9L407.2,301.5z"/>
</g>
</svg>
