<?xml version="1.0" encoding="utf-8"?>
<!-- Generator: Adobe Illustrator 23.0.0, SVG Export Plug-In . SVG Version: 6.00 Build 0)  -->
<svg version="1.1" id="图层_1" xmlns="http://www.w3.org/2000/svg" xmlns:xlink="http://www.w3.org/1999/xlink" x="0px" y="0px"
	 viewBox="0 0 100 100" style="enable-background:new 0 0 100 100;" xml:space="preserve">
<style type="text/css">
	.st0{fill-rule:evenodd;clip-rule:evenodd;fill:#FFFFFF;}
	.st1{filter:url(#Adobe_OpacityMaskFilter);}
	.st2{mask:url(#mask-2_1_);fill-rule:evenodd;clip-rule:evenodd;fill:#F8B500;}
	.st3{fill-rule:evenodd;clip-rule:evenodd;fill:#FFEADF;}
	.st4{filter:url(#Adobe_OpacityMaskFilter_1_);}
	.st5{mask:url(#mask-4_1_);}
	.st6{fill-rule:evenodd;clip-rule:evenodd;fill:#FADFDF;}
	.st7{fill-rule:evenodd;clip-rule:evenodd;fill:#766459;}
	.st8{filter:url(#Adobe_OpacityMaskFilter_2_);}
	.st9{mask:url(#mask-6_1_);fill-rule:evenodd;clip-rule:evenodd;fill:#FFFFFF;}
	.st10{filter:url(#Adobe_OpacityMaskFilter_3_);}
	.st11{mask:url(#mask-8_1_);fill-rule:evenodd;clip-rule:evenodd;fill:#FFFFFF;}
	.st12{fill-rule:evenodd;clip-rule:evenodd;fill:#12161C;}
</style>
<title>H5-heads-1</title>
<desc>Created with Sketch.</desc>
<g id="Page-1">
	<g id="H5-heads-1">
		<circle id="椭圆形" class="st0" cx="50" cy="50" r="50"/>
		<g id="Clipped">
			<defs>
				<filter id="Adobe_OpacityMaskFilter" filterUnits="userSpaceOnUse" x="1.6" y="83.9" width="97" height="70.8">
					<feColorMatrix  type="matrix" values="1 0 0 0 0  0 1 0 0 0  0 0 1 0 0  0 0 0 1 0"/>
				</filter>
			</defs>
			<mask maskUnits="userSpaceOnUse" x="1.6" y="83.9" width="97" height="70.8" id="mask-2_1_">
				<g class="st1">
					<circle id="path-1_1_" class="st0" cx="50" cy="50" r="50"/>
				</g>
			</mask>
			<ellipse class="st2" cx="50.1" cy="119.2" rx="48.5" ry="35.4"/>
		</g>
		<g transform="translate(18.000000, 6.000000)">
			<path id="路径" class="st3" d="M22.5,75.3C12.7,70.5,5.7,58.7,5.7,44.9c0-18.1,11.9-32.7,26.6-32.7c14.7,0,26.6,14.7,26.6,32.7
				c0,13.9-7.1,25.9-17.1,30.6v6.7c-6.6,5.8-13,5.4-19.2,0V75.3z"/>
			<g transform="translate(5.000000, 12.000000)">
				<defs>
					<filter id="Adobe_OpacityMaskFilter_1_" filterUnits="userSpaceOnUse" x="4.3" y="30.5" width="45.9" height="25.9">
						<feColorMatrix  type="matrix" values="1 0 0 0 0  0 1 0 0 0  0 0 1 0 0  0 0 0 1 0"/>
					</filter>
				</defs>
				<mask maskUnits="userSpaceOnUse" x="4.3" y="30.5" width="45.9" height="25.9" id="mask-4_1_">
					<g class="st4">
						<path id="path-3_1_" class="st0" d="M17.5,63.3C7.7,58.5,0.7,46.7,0.7,32.9c0-18.1,11.9-32.7,26.6-32.7
							c14.7,0,26.6,14.7,26.6,32.7c0,13.9-7.1,25.9-17.1,30.6v6.7c-6.6,5.8-13,5.4-19.2,0V63.3z"/>
					</g>
				</mask>
				<g id="分组" class="st5">
					<g transform="translate(4.000000, 30.000000)">
						<ellipse class="st6" cx="4.2" cy="18.3" rx="3.9" ry="3.3"/>
						<ellipse class="st6" cx="42.3" cy="18.3" rx="3.9" ry="3.3"/>
						<path class="st7" d="M23.4,23.5c2.8,0,5.1-1.3,5.1-0.5c0,0.8-2.3,3.3-5.1,3.3c-2.8,0-5.1-2.5-5.1-3.3
							C18.3,22.3,20.6,23.5,23.4,23.5z"/>
						<ellipse class="st7" cx="8.5" cy="5.2" rx="3.5" ry="4.7"/>
						<g transform="translate(5.000000, 0.000000)">
							<defs>
								<filter id="Adobe_OpacityMaskFilter_2_" filterUnits="userSpaceOnUse" x="4.5" y="3.7" width="2" height="2.4">
									<feColorMatrix  type="matrix" values="1 0 0 0 0  0 1 0 0 0  0 0 1 0 0  0 0 0 1 0"/>
								</filter>
							</defs>
							<mask maskUnits="userSpaceOnUse" x="4.5" y="3.7" width="2" height="2.4" id="mask-6_1_">
								<g class="st8">
									<ellipse id="path-5_1_" class="st0" cx="3.5" cy="5.2" rx="3.5" ry="4.7"/>
								</g>
							</mask>
							<ellipse class="st9" cx="5.5" cy="4.8" rx="1" ry="1.2"/>
						</g>
						<ellipse class="st7" cx="36.4" cy="5.2" rx="3.5" ry="4.7"/>
						<g transform="translate(32.000000, 0.000000)">
							<defs>
								<filter id="Adobe_OpacityMaskFilter_3_" filterUnits="userSpaceOnUse" x="5.5" y="3.7" width="2" height="2.4">
									<feColorMatrix  type="matrix" values="1 0 0 0 0  0 1 0 0 0  0 0 1 0 0  0 0 0 1 0"/>
								</filter>
							</defs>
							<mask maskUnits="userSpaceOnUse" x="5.5" y="3.7" width="2" height="2.4" id="mask-8_1_">
								<g class="st10">
									<ellipse id="path-7_1_" class="st0" cx="4.4" cy="5.2" rx="3.5" ry="4.7"/>
								</g>
							</mask>
							<ellipse class="st11" cx="6.5" cy="4.8" rx="1" ry="1.2"/>
						</g>
					</g>
				</g>
			</g>
			<path class="st12" d="M55.9,36.5c-1.3-6.1-9.1-13.8-11.2-13.1c-7.9,2.7-18.5,9.3-26.1,12.1c-4.1,1.5-10,0.8-9.6-1.7
				C8.3,32.8,9.6,52,3.8,49.4C1.9,48.5-10.4,5.9,29.6,2.9c1-0.1,2,0,3,0c0.1,0-0.1,0,0,0c0.3,0,2.1-2.3,2.5-2.3
				c0.5,0,0.7,2.4,1.2,2.4c3.4-0.5,6.1-2.4,6.6-2.4c1.2,0.2-2.1,3.7-1,4C70.2,13.3,62,50.2,60.2,50.9C54,53,59.2,46.7,55.9,36.5z"/>
			<path id="形状" class="st3" d="M5.8,42.6c2.7,0,4.9,2.7,4.9,5.9c0,3.3-2.2,5.9-4.9,5.9s-4.9-2.7-4.9-5.9
				C0.9,45.3,3.1,42.6,5.8,42.6z M58.7,42.6c2.7,0,4.9,2.7,4.9,5.9c0,3.3-2.2,5.9-4.9,5.9c-2.7,0-4.9-2.7-4.9-5.9
				C53.8,45.3,56,42.6,58.7,42.6z"/>
		</g>
	</g>
</g>
</svg>
