<?xml version="1.0" encoding="utf-8"?>
<!-- Generator: Adobe Illustrator 23.0.0, SVG Export Plug-In . SVG Version: 6.00 Build 0)  -->
<svg version="1.1" id="图层_1" xmlns="http://www.w3.org/2000/svg" xmlns:xlink="http://www.w3.org/1999/xlink" x="0px" y="0px"
	 viewBox="0 0 50 58" style="enable-background:new 0 0 50 58;" xml:space="preserve">
<style type="text/css">
	.st0{fill-rule:evenodd;clip-rule:evenodd;fill:#D7D7D7;}
	.st1{fill:none;}
</style>
<title>H5-icon-next</title>
<desc>Created with Sketch.</desc>
<g id="Page-1">
	<g id="H5-icon-next" transform="translate(-34.000000, -21.000000)">
		<path id="路径" class="st0" d="M36.9,21.6c0.5,0.1,0.7,0.1,1.3,0.6l26.1,26.1c0.8,0.9,0.8,2.2,0,3.1L38.2,77.5
			c-2.9,2.7-4.7-1.3-3.1-3.1l24.5-24.5L34.9,25.2C33.8,23.7,34.4,21.4,36.9,21.6z"/>
		<path class="st0" d="M55.3,21.6c0.8,0.1,1,0.3,1.3,0.6l26.1,26.1c0.8,0.9,0.8,2.2,0,3.1L56.6,77.5c-3,2.7-4.8-1.3-3.1-3.1L78,49.9
			L53.3,25.2C52.2,23.7,52.8,21.4,55.3,21.6z"/>
		<rect id="矩形" class="st1" width="100" height="100"/>
	</g>
</g>
</svg>
