<?xml version="1.0" encoding="UTF-8" standalone="no"?><!DOCTYPE svg PUBLIC "-//W3C//DTD SVG 1.1//EN" "http://www.w3.org/Graphics/SVG/1.1/DTD/svg11.dtd"><svg width="100%" height="100%" viewBox="0 0 24 27" version="1.1" xmlns="http://www.w3.org/2000/svg" xmlns:xlink="http://www.w3.org/1999/xlink" xml:space="preserve" xmlns:serif="http://www.serif.com/" style="fill-rule:evenodd;clip-rule:evenodd;stroke-linejoin:round;stroke-miterlimit:1.41421;"><path id="team-introduce" d="M20.4,0c1.987,0 3.6,1.613 3.6,3.6l0,19.467c0,1.987 -1.613,3.6 -3.6,3.6l-16.8,0c-1.987,0 -3.6,-1.613 -3.6,-3.6l0,-19.467c0,-1.987 1.613,-3.6 3.6,-3.6l16.8,0Zm-0.419,20.131l-15.962,0c-0.495,0 -0.896,0.401 -0.896,0.896c0,0.494 0.401,0.895 0.896,0.895l15.962,0c0.495,0 0.896,-0.401 0.896,-0.895c0,-0.495 -0.401,-0.896 -0.896,-0.896Zm0,-5.022l-15.962,0c-0.495,0 -0.896,0.401 -0.896,0.895c0,0.495 0.401,0.896 0.896,0.896l15.962,0c0.495,0 0.896,-0.401 0.896,-0.896c0,-0.494 -0.401,-0.895 -0.896,-0.895Zm0,-5.023l-15.962,0c-0.495,0 -0.896,0.402 -0.896,0.896c0,0.494 0.401,0.896 0.896,0.896l15.962,0c0.495,0 0.896,-0.402 0.896,-0.896c0,-0.494 -0.401,-0.896 -0.896,-0.896Zm-7.656,-5.022l-8.306,0c-0.495,0 -0.896,0.401 -0.896,0.896c0,0.494 0.401,0.895 0.896,0.895l8.306,0c0.494,0 0.895,-0.401 0.895,-0.895c0,-0.495 -0.401,-0.896 -0.895,-0.896Z" style="fill:#e94241;"/></svg>