<?xml version="1.0" encoding="UTF-8" standalone="no"?><!DOCTYPE svg PUBLIC "-//W3C//DTD SVG 1.1//EN" "http://www.w3.org/Graphics/SVG/1.1/DTD/svg11.dtd"><svg width="100%" height="100%" viewBox="0 0 14 16" version="1.1" xmlns="http://www.w3.org/2000/svg" xmlns:xlink="http://www.w3.org/1999/xlink" xml:space="preserve" xmlns:serif="http://www.serif.com/" style="fill-rule:evenodd;clip-rule:evenodd;stroke-linejoin:round;stroke-miterlimit:1.41421;"><path id="team-home" d="M4.688,14.197c0,0.552 -0.448,1 -1,1c-0.746,0 -1.761,0 -2.507,0c-0.552,0 -1,-0.448 -1,-1c0,-1.953 0,-6.208 0,-7.65c0,-0.309 0.143,-0.601 0.387,-0.79c1.129,-0.876 4.425,-3.434 5.8,-4.501c0.361,-0.28 0.865,-0.28 1.226,0c1.375,1.067 4.671,3.625 5.8,4.501c0.244,0.189 0.386,0.481 0.386,0.79c0,1.442 0,5.697 0,7.65c0,0.552 -0.447,1 -0.999,1c-0.747,0 -1.761,0 -2.507,0c-0.553,0 -1,-0.448 -1,-1c0,-1.05 0,-2.55 0,-2.55c0,-1.266 -1.028,-2.293 -2.293,-2.293c-1.266,0 -2.293,1.027 -2.293,2.293c0,0 0,1.5 0,2.55Z" style="fill:#f9edd8;"/></svg>